<svg class="zds4_dgssjf1 zds4_1otfm6x4" style="--zds4_dgssjf0:var(--zds-color-semantic-icon-strong)" width="28" height="28" fill="none" viewBox="0 0 32 32" data-zds-icon="IconHeartBold"><path fill="currentColor" fill-rule="evenodd" d="M16 7.922A6.35 6.35 0 0 1 20.546 6C24.139 6 27 8.996 27 12.626c0 .86-.22 1.682-.42 2.26a9 9 0 0 1-.408.985c-1.112 2.45-3.568 4.952-5.633 6.781a52 52 0 0 1-2.767 2.279c-.58.445-1.173.87-1.772 1.29a50 50 0 0 1-1.773-1.29 52 52 0 0 1-2.766-2.279c-2.065-1.829-4.521-4.33-5.633-6.78l-.03-.06-.096-.209a9 9 0 0 1-.282-.716c-.2-.579-.42-1.401-.42-2.261C5 8.996 7.86 6 11.454 6c1.78 0 3.384.738 4.546 1.922m-9 4.704C7 10.042 9.023 8 11.454 8c1.535 0 2.9.807 3.705 2.057L16 11.36l.84-1.303C17.647 8.807 19.011 8 20.547 8 22.976 8 25 10.042 25 12.626c0 .546-.145 1.13-.31 1.607a7 7 0 0 1-.305.74l-.003.005v.002l-.012.023-.011.025c-.918 2.034-3.088 4.304-5.146 6.127A50 50 0 0 1 16 23.764a49.645 49.645 0 0 1-3.213-2.608c-2.058-1.824-4.229-4.094-5.146-6.128l-.01-.025-.013-.024-.003-.005a3 3 0 0 1-.086-.183 7 7 0 0 1-.22-.558C7.146 13.756 7 13.173 7 12.626" clip-rule="evenodd"></path></svg>