<!-- assets/icons/qr-code.svg -->
<svg width="32" height="32" viewBox="0 0 32 32" fill="none" xmlns="http://www.w3.org/2000/svg">
  <!-- 테두리 원 (한층 얇아집니다) -->
<circle cx="16" cy="16" r="10.25" stroke="#121314" stroke-width="1.5"></circle>

  <!-- 내부 패턴 (fill 유지) -->
<path d="M12.5 12.5V11.75H11.75V12.5H12.5ZM13.2877 12.5L13.9869 12.2288L13.8012 11.75H13.2877V12.5ZM16.0877 19.7188L15.3884 19.99H16.7869L16.0877 19.7188ZM18.8877 12.5V11.75H18.3741L18.1884 12.2288L18.8877 12.5ZM19.6747 12.5H20.4247V11.75H19.6747V12.5ZM13.25 20.375V12.5H11.75V20.375H13.25ZM12.5 13.25H13.2877V11.75H12.5V13.25ZM12.5884 12.7712L15.3884 19.99L16.7869 19.4475L13.9869 12.2288L12.5884 12.7712ZM16.7869 19.99L19.5869 12.7712L18.1884 12.2288L15.3884 19.4475L16.7869 19.99ZM18.8877 13.25H19.6747V11.75H18.8877V13.25ZM18.9247 12.5V20.375H20.4247V12.5H18.9247Z" fill="black"></path>
</svg>
