<!-- assets/icons/stats.svg -->
<svg
  xmlns="http://www.w3.org/2000/svg"
  viewBox="0 0 32 32"
  width="32"
  height="32"
  fill="currentColor"
  class="icon icon-stats"
  aria-hidden="true"
  role="img"
>
  <path
    fill-rule="evenodd"
    clip-rule="evenodd"
    d="M16 25.5a9.5 9.5 0 1 0 0-19 9.5 9.5 0 0 0 0 19m0 1.5c6.075 0 11-4.925 11-11S22.075 5 16 5 5 9.925 5 16s4.925 11 11 11"
  />
  <path
    fill-rule="evenodd"
    clip-rule="evenodd"
    d="M12.517 16.75h-2.75v-1.5h2.75z"
  />
  <path
    d="M10.5 12.792h1.831l1.454 4.845 1.44-4.845h1.59l1.453 4.845 1.441-4.845h1.79l-2.463 7.333h-1.589l-1.44-4.627-1.441 4.627H12.95z"
  />
  <path
    fill-rule="evenodd"
    clip-rule="evenodd"
    d="M22.233 16.75h-2.75v-1.5h2.75z"
  />
</svg>